<svg xmlns="http://www.w3.org/2000/svg" viewBox="0 0 300 220">
  <defs>
    <linearGradient id="shieldFill5" x1="0" y1="0" x2="0" y2="1">
      <stop offset="0%" stop-color="#2C4F6E"/>
      <stop offset="100%" stop-color="#1F3A52"/>
    </linearGradient>
    <path id="arcPath" d="M55,72 A95,95 0 0 1 245,72" fill="none"/>
  </defs>

  <use href="#arcPath" stroke="none"/>
  <text font-family="Georgia, 'Times New Roman', serif" font-size="22" font-weight="700"
        fill="#1F3A52" letter-spacing="2">
    <textPath href="#arcPath" startOffset="50%" text-anchor="middle">DAVID SLAYS GOLIATH</textPath>
  </text>

  <g transform="translate(75,80)">
    <path d="M75,4 L141,26 V76 C141,114 113,138 75,150 C37,138 9,114 9,76 V26 Z"
          fill="url(#shieldFill5)" stroke="#8C6A3F" stroke-width="4"/>
    <path d="M75,13 L132,30 V76 C132,108 109,128 75,138 C41,128 18,108 18,76 V30 Z"
          fill="none" stroke="#B8924D" stroke-width="1" opacity="0.5"/>

    <path d="M52,82 C56,62 68,55 75,67" fill="none" stroke="#E8DCC0" stroke-width="3" stroke-linecap="round"/>
    <path d="M75,67 C82,55 96,62 98,82 C99,90 88,96 75,98" fill="none" stroke="#E8DCC0" stroke-width="3" stroke-linecap="round"/>
    <ellipse cx="75" cy="98" rx="8" ry="6" fill="#B8924D" stroke="#E8DCC0" stroke-width="1.2"/>
    <circle cx="104" cy="58" r="7" fill="#E8DCC0" stroke="#B8924D" stroke-width="1.2"/>
  </g>
</svg>
