<svg xmlns="http://www.w3.org/2000/svg" viewBox="0 0 220 220">
  <defs>
    <linearGradient id="ringFill6" x1="0" y1="0" x2="1" y2="1">
      <stop offset="0%" stop-color="#E8C887"/>
      <stop offset="100%" stop-color="#8C6A3F"/>
    </linearGradient>
    <linearGradient id="shieldFill6" x1="0" y1="0" x2="0" y2="1">
      <stop offset="0%" stop-color="#2C4F6E"/>
      <stop offset="100%" stop-color="#1F3A52"/>
    </linearGradient>
    <path id="topArc" d="M30,110 A80,80 0 0 1 190,110" fill="none"/>
    <path id="bottomArc" d="M46,150 A65,65 0 0 0 174,150" fill="none"/>
  </defs>

  <circle cx="110" cy="110" r="100" fill="#E8DCC0" stroke="url(#ringFill6)" stroke-width="5"/>
  <circle cx="110" cy="110" r="88" fill="none" stroke="#8C6A3F" stroke-width="1" opacity="0.5"/>

  <text font-family="Georgia, 'Times New Roman', serif" font-size="15" font-weight="700"
        fill="#1F3A52" letter-spacing="1.5">
    <textPath href="#topArc" startOffset="50%" text-anchor="middle">DAVID SLAYS GOLIATH</textPath>
  </text>
  <text font-family="Georgia, 'Times New Roman', serif" font-size="10" fill="#8C6A3F" letter-spacing="2">
    <textPath href="#bottomArc" startOffset="50%" text-anchor="middle">UNWAVERING FAITH</textPath>
  </text>

  <g transform="translate(70,68)">
    <path d="M40,2 L75,16 V46 C75,68 60,82 40,90 C20,82 5,68 5,46 V16 Z"
          fill="url(#shieldFill6)" stroke="#8C6A3F" stroke-width="3"/>
    <path d="M24,54 C26,42 33,38 40,46" fill="none" stroke="#E8DCC0" stroke-width="2.2" stroke-linecap="round"/>
    <path d="M40,46 C47,38 54,42 56,54 C57,59 50,63 40,64" fill="none" stroke="#E8DCC0" stroke-width="2.2" stroke-linecap="round"/>
    <ellipse cx="40" cy="64" rx="5" ry="4" fill="#B8924D" stroke="#E8DCC0" stroke-width="0.8"/>
    <circle cx="60" cy="32" r="4.5" fill="#E8DCC0" stroke="#B8924D" stroke-width="0.8"/>
  </g>
</svg>
